<?xml version="1.0" encoding="UTF-8"?>
<svg id="Capa_2" data-name="Capa 2" xmlns="http://www.w3.org/2000/svg" viewBox="0 0 800.0532 800.9973">
  <defs>
    <style>
      .cls-1 {
        fill: #fff;
      }

      .cls-2 {
        fill: #d6d6d6;
      }

      .cls-3 {
        fill: #adadad;
      }
    </style>
  </defs>
  <g id="Capa_1-2" data-name="Capa 1">
    <g>
      <path class="cls-1" d="M519.3521,782.4271l-12.8891,4.5118-25.6556-74.3862,10.3993-3.5199,30.196,26.3164c4.7895,4.1741,8.2434,8.9458,12.3041,13.91l-5.3988-11.8492-12.7058-36.3063,12.885-4.495,25.7099,74.3995-10.387,3.6558-33.61-29.5622-8.6371-10.05,4.9388,10.3189,12.8501,37.0565Z"/>
      <path class="cls-1" d="M693.3823,672.7668l-6.3788,7.3048-8.2767,8.277c-10.3846,10.3849-24.5946,11.4685-37.011,2.6152-9.6435-6.8761-17.7909-15.567-23.4313-25.8842-6.2313-11.398-4.4447-24.2107,4.0241-33.6835l6.3348-6.1643,10.7961-8.8718,6.1385,6.31,10.4725,10.9818,10.4943,11.0018,10.4935,11.0018,10.4711,10.9899,5.8731,6.1215ZM668.991,679.31l5.6077-5.455-4.4653-4.7833-9.5854-9.9184-10.5064-11.0109-10.1998-10.5886c-.5258-.5458-1.2279-2.4929-2.2698-1.8429-2.9887,1.8644-6.3464,4.7438-7.7272,8.1141-3.5021,8.5481,3.7804,19.4765,10.1996,25.8111l4.3048,4.2481c6.959,6.8673,17.4527,12.4195,24.6419,5.426Z"/>
      <path class="cls-1" d="M671.7913,613.3269l43.7968,32.2163-8.0598,10.9727-43.3298-31.9029c-9.237-7.1814-15.0212-17.4312-9.9779-28.2889,2.9192-6.2848,7.3786-11.6714,13.5023-14.9532,9.0895-4.8712,18.7405-.2819,26.8553,5.7712l41.6437,30.5176-8.5272,11.6563-41.6724-30.5911c-3.4177-1.8927-6.41-4.5706-10.5449-4.5243-4.7947.0537-8.9209,4.7283-9.2334,9.5291-.2576,3.9569,2.814,6.5668,5.5474,9.597Z"/>
      <path class="cls-1" d="M400.1993,65.1534l-.0298,16.0029-14.9805-.0005-.0113-16.0062-31.9733.0103.0582-13.9193L387.428,1.3098l12.7561-.1447-.0112,50.4642,10.0031.0339.0047,13.4817-9.9815.0084ZM385.2192,51.6013l-.1344-25.9779-17.4116,26.014,17.546-.0361Z"/>
      <path class="cls-1" d="M544.0809,688.526c2.2644.8722,3.4939,2.9895,4.8544,4.7531l8.3668,8.3001,15.6854-8.76-4.6212-17.7208,12.4499-6.9863,18.4824,79.568-9.819,5.5738-23.8981-23.634-34.3079-33.9807,12.8072-7.1133ZM577.3081,723.6965l7.468,9.0853-5.8194-17.5184-2.952-10.6195-10.5658,5.8277,7.9476,8.8631,3.9217,4.3618Z"/>
      <polygon class="cls-1" points="759.2163 479.6007 746.0499 477.3829 749.7107 455.3359 730.4982 451.9908 726.2705 476.6679 713.1741 474.6339 719.7288 435.5078 796.7506 448.3688 790.2884 487.1085 777.2684 484.9205 781.2099 460.3756 762.858 457.4771 759.2163 479.6007"/>
      <polygon class="cls-1" points="327.1206 761.4248 305.0597 756.7468 307.8674 743.6676 329.9379 748.4241 333.9466 729.3644 309.1536 723.9689 311.9962 711.0025 350.8529 719.3354 334.4932 795.6725 296.1013 787.5564 298.9428 774.4846 323.1098 779.7195 327.1206 761.4248"/>
      <path class="cls-1" d="M770.755,542.5371l-10.3212-8.0364c5.2792-4.5853,10.4797-15.8064,7.2153-20.0356-1.8556-2.4039-5.4886-3.5216-8.2439-2.4596-4.0541,1.5626-7.0214,4.1733-10.404,6.6336l-8.9458,6.5063c-7.183,4.128-15.1221,4.9055-22.7045,1.6901-11.0815-4.6993-15.8936-12.4889-13.8689-24.7046,1.8244-8.5055,5.3109-16.4023,11.5534-22.8306l11.0822,8.5579c-6.3657,5.1792-12.3819,17.3107-7.8985,22.7873,3.2597,3.9818,9.722,3.6518,12.1631,1.8489l10.6193-7.8431c9.8829-7.2992,15.7845-10.1604,28.0518-6.0972,8.8638,2.9359,14.5661,11.0612,13.2525,20.4048-1.1567,8.2278-5.1812,18.2064-11.5509,23.5782Z"/>
      <path class="cls-1" d="M287.6106,759.1206c-1.8637,11.0127-9.156,19.8811-20.9556,19.1494-9.5308-1.1065-18.5015-5.4318-25.1015-12.549l8.6185-10.3424c3.5864,4.5259,8.3184,7.1889,13.5882,8.8137,2.5359.6557,5.604.4314,7.3401-1.6698,2.2862-2.7671,2.4055-6.8519.5058-9.7155l-7.0008-10.553c-3.6539-5.508-7.1807-11.2124-7.3319-18.1047-.1403-6.3976,2.3003-12.8502,6.2866-17.5686,8.9325-10.5728,20.897-8.144,32.5118-2.309,4.3478,2.1842,8.1528,5.0366,11.1258,8.5574l-8.812,10.2586c-5.1803-5.5994-12.9491-11.3458-20.9057-9.6294-3.7834,1.6185-6.1407,6.2869-4.8781,10.3766,1.4818,4.7994,4.4404,8.6018,7.4311,12.5266,5.1104,6.7065,9.0276,14.1902,7.5775,22.759Z"/>
      <path class="cls-1" d="M105.0545,270.5895l-69.8454-37.1168,2.5324-4.9064,8.3738-.1751,16.5286-.4603,16.9193-.4978,19.6092-.1598c2.6238-.0214,4.9899,1.3075,7.834.6177-6.7593-2.33-12.6998-5.4615-19.0489-8.8497l-34.2672-18.2863,3.987-7.3773,70.1115,37.3017c-.7969,1.7932-1.7562,3.4606-3.0993,4.9079l-15.1841.2961-20.3715.5377-18.6411.4392c-1.725.0406-2.9408.1569-4.6878-.0302l-10.5096-1.1253,9.8933,4.2211,43.7942,23.1754-3.9284,7.4881Z"/>
      <path class="cls-1" d="M168.4299,728.6504c-1.7957-.5683-2.709-1.8543-4.3789-3.1477l8.9587-57.0913,2.7948-10.4622-6.1844,9.0749-29.985,37.6432-6.5428-5.3353,49.2813-61.819c1.6686.8631,2.9159,1.9605,4.4162,3.3193l-9.4061,57.8127-3.1297,10.6,7.4385-10.7269,29.3842-36.8959,6.5276,5.2319-49.1745,61.7963Z"/>
      <path class="cls-1" d="M19.0531,526.8525c-1.1893-1.4127-1.0605-3.0266-1.8072-4.887l34.5437-34.245,7.9932-7.6024,7.683-5.9509-9.7188,3.4339-47.6018,12.7803-1.9909-8.1635,76.587-20.5244,1.2966,5.0831-24.6823,24.336-16.6791,16.3411-9.4415,7.1777,9.7426-3.3972,47.9825-12.8897,2.3489,8.0219-76.2558,20.4861Z"/>
      <path class="cls-1" d="M719.7557,161.1696l-60.3589,50.9355c-1.5142-1.1285-2.6995-2.4957-3.4881-4.4919l20.1052-53.9134,5.0963-10.176-10.3133,9.9141-34.8087,29.3769-5.399-6.4506,60.7105-51.1865c.8076,1.5761,1.9066,2.4653,3.4281,3.7636l-19.7656,54.0187-1.862,3.7358-3.9259,7.1633,10.1228-9.4838,35.0623-29.6616,5.3962,6.4558Z"/>
      <path class="cls-1" d="M727.3222,300.4258c-7.7616.9486-15.4182-1.3236-21.566-5.9989-7.8183-5.9456-10.5467-17.8418-13.5714-28.1558l73.2123-27.8962,7.9623,19.3495c3.5169,11.1818-.8062,22.3018-10.3164,29.1225-10.4536,7.4972-22.787,11.9981-35.7208,13.5789ZM750.1776,283.8611c4.24-2.1968,8.2638-4.5297,11.372-8.0989,7.2062-8.2751,4.8859-17.1242-.5369-26.3887l-58.5801,22.2796,2.1493,6.9101c6.0194,19.353,29.97,13.394,45.5958,5.298Z"/>
      <path class="cls-1" d="M88.1504,315.3963c-5.8765,5.2388-14.0647,6.7686-21.8355,5.8925-17.141-1.9326-48.169-11.5139-49.8822-30.1031-.7008-7.6035,1.6129-15.1489,6.8381-20.6135,11.7204-12.2573,37.7036-4.7424,52.5452,2.0391,11.5325,5.2695,22.0597,14.7162,19.755,27.7558-1.0167,5.7526-3.0895,11.1682-7.4206,15.0292ZM85.0947,305.9409c5.0394-7.134,1.783-16.2674-6.019-21.0921-12.258-7.5802-28.06-12.5072-42.4456-10.931-4.8192.528-8.8694,3.5099-10.6846,7.2114-4.841,9.8717,2.8789,17.9597,12.7604,22.6901,7.2453,3.4685,14.7235,5.8316,22.606,7.4045l5.9455.5879c6.5055.6432,14.1556-.6589,17.8373-5.8709Z"/>
      <path class="cls-1" d="M578.3985,126.9467c-6.9514,1.9981-13.9124.1884-19.7255-3.8438-12.7627-8.8527-11.5196-22.524-5.6349-36.0282,6.3104-14.4811,20.2759-36.9989,36.7759-36.1734,6.1319.3068,11.486,2.9848,16.1022,7.0131,5.0251,4.3851,7.5077,11.344,6.9507,17.9846-1.1396,13.5853-10.0092,28.859-18.5655,39.4093-3.8811,4.7855-10.2098,10.0021-15.9029,11.6385ZM580.8954,115.6973c4.7734-3.7206,8.1127-8.0089,11.3287-12.9367,4.9623-7.6035,9.1752-15.591,10.8682-24.5568,1.4297-7.5713-.5394-14.5849-7.5024-17.5822-8.6022-3.7029-16.866,2.7449-22.6009,10.4445-7.7471,10.4011-19.4279,30.6732-12.9764,41.6172,4.4947,7.6245,13.9809,8.3936,20.8827,3.014Z"/>
      <path class="cls-1" d="M46.3954,586.2913c-3.2123-3.3595-5.1258-7.3833-7.2322-11.484-2.3112-4.4994-4.3906-9.3416-4.095-14.4713.2729-4.7354,2.3913-9.0032,5.9795-12.0473,9.5266-8.0819,24.2245-11.3701,33.1389-1.5691l1.8844-4.8752,21.8985-27.3508,4.3278,9.1095-23.5233,29.0764,1.8392,8.079,31.9323-14.7953,3.8149,7.9138-69.9648,32.4143ZM49.0507,575.3837l26.0668-12.0502-4.1725-8.2869c-3.8004-7.548-16.0588-6.6163-23.2417-.0753-4.2529,3.8729-5.193,9.5844-2.1745,14.5471,1.1375,1.8702,1.6365,4.1314,3.522,5.8653Z"/>
      <path class="cls-1" d="M633.2644,135.4899l-8.4686,34.7557-7.8371-6.2824,9.1243-36.863-5.0721-6.2678-22.7632,27.0521-6.7467-5.45,49.7277-59.1178c6.3103,3.2082,12.18,7.4699,17.0262,12.476,6.476,6.6896,6.9775,15.9566,1.8259,23.4032-6.82,9.8581-15.6701,16.0504-27.3138,11.9127-.9261,1.2709.5436,2.9515.4973,4.3814ZM653.8809,104.7909c-.9201-4.6319-6.4188-8.0924-10.5216-10.5041l-18.4913,21.9784,6.9563,5.6688c2.6715,2.1771,7.0131,2.6829,10.412,1.2989,6.8684-2.7968,13.2057-10.5828,11.6445-18.442Z"/>
      <polygon class="cls-1" points="489.5618 791.2712 439.0417 799.4943 436.9588 786.3539 455.0207 783.4944 444.5997 719.445 458.8152 717.0438 469.2656 781.1054 487.4911 778.0522 489.5618 791.2712"/>
      <path class="cls-1" d="M745.2675,603.1592c-1.8602.1424-2.8895-.924-4.1599-1.6124l-7.8672-4.2631,8.0378-16.2505-57.7665-28.8914,6.5567-13.0197,31.85,16.1079,25.9616,13.1276,8.2295-16.3699,11.8017,5.8509-22.6437,45.3205Z"/>
      <path class="cls-1" d="M390.9729,800.9973l-7.5565-.5599-6.7164-.5068c.9421-2.0458.3778-4.2652.5287-6.2757l.6-7.997.4731-7.0353.5357-7.9639.4658-7.0373.5258-7.9714.4645-6.529.4648-8.0062c.1136-1.9562.9856-3.8136.2864-6.0605-2.3968.4703-4.9046-.1116-7.3361-.2858l-7.4786-.5356-7.0478-.5346-4.9582-.1032.0743-5.8935c.0262-2.0743.6334-7.0838.6198-7.062.2219-.3563,1.1842-.7981,1.7785-.6056,2.7203.8808,5.2849.5449,7.9831.7338l7.0447.4934,7.9583.5318,7.0514.4418c2.6651.167,5.1916.8233,7.9846.3327.6755-.1187,1.4038.2589,1.7278.5327.6672.5637-.168,1.5772-.1941,2.0787l-.4664,8.9465-.4576,7.0333-.5295,7.9635-.4738,6.5282-.5288,7.9712-.465,7.0375-.5337,7.9626-.4704,7.037-.5663,7.9727c-.1894,2.6672.2397,5.2019-.788,7.3659Z"/>
      <path class="cls-1" d="M737.9832,342.8769l-4.2022-20.9724-3.7489-.2788-6.5099-.5685-6.5473-.4695c-1.7893-.1283-3.526-.9125-5.7288-.2788l-1.767-8.8116,82.1792,7.3573,1.1765,4.8203-72.9614,38.7446-1.9768-8.874,20.0867-10.6686ZM762.0434,323.988l-6.0701-.4266-7.9992-.4983c-2.2179-.1382-4.438-.9205-6.318-.2538l3.5619,16.4791,15.0983-7.8358,16.3479-7.0787-14.6208-.3859Z"/>
      <path class="cls-1" d="M58.7404,438.4733c.1798,1.9496-.1654,3.7637,1.036,5.3164l21.3907,3.9982c.7166,2.1549.7188,4.0911.6787,6.3989l.3428,1.2485c.0876.3191-.6291.9209-1.4352.7594L1.0287,440.2267c-.2797-1.8705-.3038-3.2735.0115-4.9958l74.8972-29.9139c2.8965-1.1569,1.2445,3.1171,2.6122,8.4588l-20.9293,8.2328c-.8213,1.6644-.0313,3.4248.1174,5.1616l.512,5.981.4908,5.322ZM26.1927,437.5936l25.229,4.4134-1.6818-16.9886-22.0928,8.4026-11.1531,3.4046,9.6987.7679Z"/>
      <path class="cls-1" d="M121.5301,199.9576l13.3893,18.1919-5.285,6.8151-48.2184-66.9089,2.9611-4.0065,77.1085,29.9412-5.8408,7.2075-20.9095-8.2671-13.2052,17.0269ZM127.4017,179.896l-23.9237-9.837-8.2083-3.9303,5.79,6.3808,15.8621,20.8964,10.48-13.5099Z"/>
      <path class="cls-1" d="M693.0954,257.4496c-1.1075,1.1695-1.7584,2.4621-2.9737,3.2614l-4.7544-7.6453,3.5617-4.0008,7.3459-7.6184,4.7192-4.9322-10.955-18.7057-21.9995,5.7926-4.275-7.4547,53.7531-13.4265,26.3705-6.5566c1.2399,1.3345,1.8295,2.8321,2.5376,4.3906l-5.1674,5.3961-6.7508,7.2027-6.9937,7.5003-6.996,7.5002-6.9964,7.5001-6.9962,7.4999-6.9912,7.4968-6.4386,6.7995ZM709.0836,227.9312l11.9557-12.2183c1.3054-1.3341,2.2804-2.6062,3.7376-3.8408l6.7645-5.7311-9.4089,3.1539-24.2765,6.6697,8.5488,14.8649c1.3578-.7002,1.6969-1.8949,2.6787-2.8982Z"/>
      <polygon class="cls-1" points="78.2825 624.3375 99.786 610.0419 86.5859 589.9269 93.0923 585.4397 106.5646 605.5339 129.844 589.9625 115.0251 567.7057 121.8271 563.4196 141.404 592.7446 76.3716 636.0545 69.9862 626.4818 57.1428 607.0325 63.7815 602.5958 78.2825 624.3375"/>
      <polygon class="cls-1" points="204.4631 101.1704 184.9491 115.2227 201.2425 138.027 222.9098 122.4785 227.6007 128.9781 198.8904 149.6698 153.3327 86.1996 181.5121 65.9263 186.4851 72.3162 165.0813 87.6316 180.1882 108.7376 199.6549 94.6311 204.4631 101.1704"/>
      <path class="cls-1" d="M233.6054,122.7952c-1.6543-1.6724-1.4434-5.412-1.7833-8.673,7.1142-.1128,13.3057-1.6014,18.7845-6.0283,4.3015-3.4757,5.2513-8.5428,3.2018-13.4945-6.0752-14.6781-27.5904-6.9684-40.6082-17.4597-4.8168-3.882-8.1084-10.1417-8.2852-16.4675-.1616-5.7848,3.6318-10.6132,8.0003-13.8578,5.359-3.9803,14.6748-7.8501,21.2851-7.1034l.6547,7.7997c-8.3818.6115-21.0917,4.4536-21.0336,13.2692.0192,2.9122,1.5865,6.4313,3.9693,8.3099,10.8501,8.5542,36.4904.7886,44.6044,23.4951,2.3656,6.6199,1.4975,13.832-3.7013,19.2079-6.3725,6.5896-15.6062,10.0894-25.0887,11.0023Z"/>
      <path class="cls-1" d="M774.6383,374.861c-10.839,9.0354-14.9139,30.3076-36.223,29.4228-7.2433-.3008-14.311-4.22-17.1438-11.3989-3.5319-8.9507-2.97-19.2466.9514-27.9119l8.4702,2.3881c-4.8896,8.2243-5.3464,22.804,2.7047,26.9271,4.3731,2.2396,10.0995,1.7909,14.0709-1.1342,3.2344-2.3823,5.4965-5.513,7.7856-8.7539l9.0864-12.8644c5.9309-6.546,14.379-9.3966,22.9492-7.2311,9.7006,2.4511,12.9157,12.0039,12.7578,21.8429-.0778,4.8519-.4522,9.5361-2.7518,14.0545-2.6784-.2583-5.1153-1.1827-7.8791-2.2295,2.4603-5.2718,3.0482-11.1321,2.2808-16.9227-.7084-5.3453-4.8779-8.8575-10.2104-8.5134-2.6066.1682-4.7746.5954-6.8489,2.3245Z"/>
      <path class="cls-1" d="M414.4199,800.219c-1.7182.0216-3.1299.818-4.8091.3348.2613-2.1883-.2447-4.2608-.3182-6.4524l-.3438-10.2542-.5082-11.9869-.5377-11.9115-.4565-11.5913-.551-12.4193-.3639-10.6929c-.0249-.7324-.9503-2.8704.2874-2.8991l10.8311-.2508c1.0341-.0239,1.8465-.6763,3.0471-.3833-.2509,1.3707.3526,2.6415.3912,3.9758l.3116,10.7672.5393,11.9028.4595,11.5909.5021,11.9968.5364,11.9071.3759,11.181c.0584,1.7362.8938,3.5363-.1505,5.0693l-9.2428.116Z"/>
      <polygon class="cls-1" points="630.0123 727.5355 583.8129 664.5778 595.3699 656.0392 641.5724 719.0269 630.0123 727.5355"/>
      <path class="cls-1" d="M74.8275,360.3669c1.7706-.4574,3.1348-.0056,3.7852,1.6353,3.3723,8.5082,3.1519,18.3649-1.5052,26.3778-5.6047,9.6433-19.6513,12.9217-30.6951,12.9158l-3.5906-.0019c-13.8562-.0075-31.6648-3.3956-39.1852-15.3899-5.4407-8.6774-4.2063-19.6685-.0418-29.2821l7.8354,2.539c-2.5457,4.6817-3.4989,9.6817-3.0389,15.0853,1.0966,12.8799,17.6123,16.7293,29.6732,17.6988l11.5975.0021c6.7129-.6586,13.4402-2.2911,18.2684-7.199,6.1608-6.2625,6.2139-15.6369,1.8552-23.0785l5.0418-1.3024Z"/>
      <path class="cls-1" d="M106.3779,672.0949l-4.5019-4.9969-5.2276-5.7574-4.2571-4.7555-5.0146-5.8065c1.9238-1.3793,3.7646-2.9805,5.6757-5.1765l3.8637,3.961,4.2691,4.7601,5.0394,5.3426,44.9552-40.5519,6.4222-6.1484c2.3805,1.8899,4.4919,4.0192,6.1636,6.5321l-52.0167,46.8477,5.9656,6.3747,7.0244,7.8851c-2.3199,1.5809-3.9253,3.1612-5.6255,5.1122-1.7113-.3999-2.3682-2.221-3.4333-3.3849l-5.0293-5.4956-4.2728-4.7419Z"/>
      <path class="cls-1" d="M452.8589,16.0762c1.1603,10.5519-4.8796,19.2973-15.6164,20.8063-7.1598,1.0062-14.7314-1.7224-18.6683-8.0633-4.5224-7.284-3.5508-16.5293,1.8603-22.7633,3.7101-4.2743,8.2761-5.8898,13.7174-6.0471,9.7593-.282,17.6253,6.2306,18.707,16.0674ZM438.5824,24.6786c2.5273-1.5528,3.3832-4.7379,2.8961-7.4961-.4057-2.2974-1.8324-4.8107-4.5659-5.8008-1.2981-.4702-3.7039-.4963-5.0114.0003-3.6654,1.3921-5.1446,5.3207-4.4191,8.8417.5662,2.7476,2.0611,4.4254,4.1367,5.3578,2.2811,1.0247,4.5477.5816,6.9636-.9028Z"/>
      <path class="cls-1" d="M193.2209,153.8379c-1.2714,1.7762-2.8805,2.6561-4.2636,3.9954l-10.6686,10.3309-12.0963,11.7484c-2.6946-1.7284-4.4024-4.3822-6.54-6.5873l-10.3485-10.6755-10.9984-11.4965-11.4908-11.998-10.8085-11.182c-1.3387-1.385-2.2803-2.9303-3.9386-4.2797l6.0382-6.0686,10.2082,10.5348,10.997,11.4938,11.4891,11.9965,10.3453,10.6726,5.4541,5.8118c.616-.9454,1.8208-1.5134,2.7674-2.4281l11.4092-11.0255,6.7703-6.5314,5.6743,5.6885Z"/>
      <path class="cls-1" d="M521.1997,103.4828c-5.2071-.3185-9.6142-2.7163-13.2629-6.2211l4.6578-6.3923c2.1449,2.3477,5.3113,4.6588,8.3322,3.5347,3.0732-1.1436,4.3763-4.4995,5.5986-7.4322l23.3742-56.0853,8.1009,3.2748-24.2231,58.0989c-2.2007,5.2783-7.3158,11.5444-12.5777,11.2226Z"/>
      <polygon class="cls-1" points="82.4057 349.7707 5.7358 336.3784 7.2009 327.7279 83.8728 341.1017 82.4057 349.7707"/>
      <polygon class="cls-1" points="197.3126 745.387 189.7162 740.9997 230.1559 674.0702 237.5863 678.7238 197.3126 745.387"/>
      <path class="cls-1" d="M495.4035,53.5995c-.6167,4.0867-3.0931,7.7072-7.1538,7.8737-2.2911.094-4.3405-1.4024-5.3281-2.8606-2.4601-3.6321-.3385-10.8629,3.5981-12.4807,2.5803-1.0604,5.7057-.5725,7.3553,1.6716,1.2687,1.7258,1.8629,3.5797,1.5285,5.7959Z"/>
      <path class="cls-1" d="M314.2871,58.8196c-3.9561-2.9593-4.8125-8.8771-2.0904-12.6629,1.609-2.2377,4.7857-2.512,7.2429-1.6332,3.7838,1.3532,6.7986,9.4328,2.7362,13.4913-1.7073,1.7057-5.4741,2.611-7.8887.8048Z"/>
      <path class="cls-1" d="M435.1321,427.6272l.9482,2.4133c-.3699,39.2449,26.8188,73.8979,64.9545,83.1311,20.2461,5.5696,40.621,10.8912,61.1248,15.9648,2.6758.0247,5.0024.5949,6.98,1.7107.41-.3064.5453-.2126.4065.2808,2.3423,7.053,4.2431,14.3076,4.5326,22.058.9076,4.5683.4954,8.7963.095,13.5038-1.5746,18.5107-8.931,35.9902-21.0815,49.8606l-7.5749,7.5683c-13.8955,12.3035-31.2927,19.6229-49.8534,21.179-22.2475,1.8653-47.4121-6.3588-63.5978-21.5l-3.6361-3.4015-3.6099-3.8681c-.3429.1951-.8963.4376-1.0707.2277-2.8226-3.3975-6.5248-8.4753-8.8879-12.2146l-31.6944-55.2998c-10.7099-20.2722-12.5526-44.0247-5.6345-65.818,3.8952-12.2704,13.2352-29.2333,23.3808-37.2918.6893-.5475,1.5831-.7346,2.4332-.8795.2491-.8408.5472-1.7177,1.1798-2.3487,5.5832-5.5693,19.8586-13.5504,27.517-15.4318.8739-.2147,1.7844-.017,2.6394.2047.099-.2307.2517-.2348.4493-.0489Z"/>
      <path class="cls-1" d="M614.98,369.303c26.2787,13.4217,44.1184,39.2206,46.8387,69.0092l.0594,15.1663c-3.6443,41.7436-37.2611,74.5216-78.8972,77.7848-4.6355.3633-8.9721.8953-13.4348-.1355-.0882-.0945-.2605-.2765-.4065-.2808l-1.3404-.5807-4.6381-10.7253-32.8641-56.4638c-19.5647-30.4672-57.9231-44.5444-92.7048-35.1069l-2.46-.3431-.4493.0489-.7516-.8296c-.6142-7.5832,4.0338-25.7103,7.8723-32.2033.4371-.7394,1.1992-1.2093,1.929-1.6253.0963-.4376.1798-.4478.2503-.0159l2.3489,1.0085c25.5918,26.1241,66.5715,33.1405,99.0351,15.96l54.7956-31.4145c4.2502-2.5053,8.2499-5.4167,11.8769-8.7596l2.1117-.6257c.1537-1.3209.6417-1.1875.8292.1322Z"/>
      <path class="cls-1" d="M530.1046,224.5573c-.1042.233-.3547.3615-.534.4201l-1.5883,1.5955-6.4929,2.6301c-20.6785,11.4529-41.1489,23.2456-61.4111,35.3781-31.0696,20.251-44.8193,59.8058-34.137,95.1558l-.2636,2.5098-.5774.9775c-9.91-.4805-23.3808-2.6998-32.153-7.7019-.7676-.4377-1.2752-1.2018-1.7267-1.941-.3511-.2593-.3237-.3088.0822-.1485l1.0085-2.3332c25.9496-25.1946,33.58-65.7601,16.7977-98.1037l-32.7542-57.1988c-2.4554-3.8944-5.2101-7.5515-8.2642-10.9715l-.3755-1.7772c-.821-.046-.8808-.3859-.1541-.7599,13.5227-26.1266,39.2071-44.0052,68.7523-46.9059l16.2135.013c41.3108,3.6968,73.6456,37.2526,77.1698,78.6956l.4081,10.466Z"/>
      <path class="cls-1" d="M403.3466,445.2518c-29.2426,26.1598-37.8157,69.5982-18.7253,104.5859l31.0723,54.1511,9.1266,12.5392c-13.7586,26.764-40.9398,44.3459-71.1052,46.2877l-10.0413.0156c-18.3847-1.3172-36.0072-8.0033-49.9408-20.1683l-10.2426-10.2685c-14.2298-16.8415-21.3469-38.4825-20.1622-60.1997-.2669-.3602-.1811-.5383.2632-.531l1.2426-1.4379c4.0946-1.2925,8.1292-2.8113,11.895-4.899l58.0709-33.7042c30.3086-19.7259,44.0628-58.5899,34.2087-93.2801l.2719-2.6577c.7487-.42,1.5584-.8339,2.4339-.8367,7.7326-.025,23.3434,4.3698,29.9421,8.3989.7609.4646,1.2534,1.247,1.6902,2.0049Z"/>
      <path class="cls-1" d="M369.2803,435.6847l-2.2508.9095c-36.7128-1.176-71.3922,21.9987-82.9673,57.1148l-17.5383,64.4818-1.8,11.9611-1.1327,1.5117c-.0136.1609-.1784.3773-.2632.531-9.9368,2.879-20.2541,4.537-30.8451,3.7647-19.9004-1.4511-38.2599-9.0713-52.9974-22.5458-18.956-17.3316-29.5361-43.5648-27.3255-69.2895,1.5585-18.1362,8.346-35.1066,20.0885-49.0101l8.5263-8.7381c-.0516-1.1101.3589-1.118.5238.0197l2.3801.0899,6.9434,3.005c22.7616,6.6256,45.5989,12.8113,68.5117,18.5572,35.7715,7.8264,73.1802-9.7661,90.9429-41.6058l1.9479-1.4831c.8146.221,1.6708.4868,2.285,1.0911,5.4683,5.3798,13.5621,19.6666,15.2564,27.143.1887.8326-.0414,1.6926-.2857,2.4918Z"/>
      <path class="cls-1" d="M367.561,182.2886c.1954.1172.2383.4895.1541.7599l.0319,2.1245c-2.3551,4.8065-3.9821,9.9162-5.4204,15.0628l-15.8304,60.3428c-7.4142,36.1337,10.8114,73.7218,43.2828,90.9391l1.5238,1.9151-.0822.1485c-.2032.8239-.4505,1.691-1.0438,2.322-3.0652,3.2602-8.3618,6.6533-12.275,8.9703-3.5808,2.1202-9.8665,5.6649-13.745,6.4804-.8507.1789-1.7054.0688-2.5348-.1766l-.9098-2.524c1.2459-36.0602-21.5573-71.6246-56.1945-82.8696l-62.5177-17.0463c-5.5513-1.4282-11.2329-2.2684-16.9519-2.5847l-2.2381-1.1021c-.619.8722-.9543.5898-.4659-.4314-2.7214-9.6101-4.1543-19.5415-3.3751-29.7553,1.4129-18.5215,8.0363-35.7678,20.0602-49.9566l9.7168-9.7924c13.4664-11.7366,30.2495-18.723,48.0733-20.2617l14.7767.0331c21.6941,1.8712,41.3862,11.7134,55.9651,27.402Z"/>
      <path class="cls-3" d="M569.1396,530.847c-4.7796-.1411-9.4723-1.0146-14.4032-2.3287l-53.9643-14.3819c-16.1992-4.3172-30.7032-12.1956-42.192-24.4333-15.812-16.8429-24.2585-39.1972-23.448-62.0759,36.6076-10.8882,77.1313,3.7748,97.2346,36.8707l31.6906,54.6035,5.0822,11.7456Z"/>
      <path class="cls-2" d="M614.1509,369.1708c-4.2536,4.1558-8.9489,7.6532-14.377,10.7684l-52.8862,30.3516c-34.1087,18.5661-76.7819,10.7763-102.905-17.2887.1302-.7844.4262-1.2783.9068-2.1789,18.7282-35.0919,59.301-52.8348,98.0534-42.4323l56.6515,15.2072c5.268,1.4141,9.939,3.29,14.5565,5.5728Z"/>
      <path class="cls-1" d="M222.344,264.6194c.0727.2569.1761.4215.4659.4314l1.5582,1.7343c1.5589,5.0316,3.6296,9.8921,6.2128,14.4859l32.3398,55.5844c20.265,31.6219,60.621,45.5029,96.2165,34.0935l2.4847.2287c.4211.7147.8435,1.4922.8515,2.3399.0711,7.5541-4.4982,23.3356-8.4753,29.7698-.4494.7271-1.2134,1.1834-1.947,1.5864l-2.312-1.051c-25.2236-27.0438-66.6076-34.9098-99.6397-17.9269l-57.2138,32.7855-9.6986,7.3522-1.8884.3622c-.0077-.2494-.4447-.3201-.5238-.0197-26.4179-13.725-44.0474-40.7249-46.115-70.6894-1.494-21.6521,5.9369-44.1869,20.1359-60.5357l10.2542-10.2273c16.1444-13.6246,36.4525-20.644,57.2941-20.3041Z"/>
      <path class="cls-3" d="M361.6219,371.1775c-37.3752,12.9669-79.9068-1.3832-100.7808-35.7591l-30.5826-52.6962c-3.3552-5.7813-5.706-11.5365-7.4486-17.6713,6.9035.2372,13.6069,1.1261,20.5997,3.0249l58.173,15.7965c23.6408,6.4195,42.1705,23.9959,52.334,46.0607,6.0476,13.1293,8.3909,27.0565,7.7053,41.2446Z"/>
      <path class="cls-1" d="M614.98,369.303l-.8292-.1322-2.1598.0683-6.1285-2.5874c-22.4292-6.4893-44.9644-12.6089-67.6054-18.3587-37.0698-8.0847-76.132,10.4282-93.1482,44.3287l-1.1262.3804c.2489-.0128-.0975.0052-.2503.0159-.8436-.2407-1.7232-.53-2.3624-1.1552-5.5603-5.4387-13.8541-19.501-15.8565-27.014-.2283-.8566-.0437-1.7574.1641-2.6019l2.222-.956c36.3478.3629,70.3764-23.0902,81.4972-57.9645,6.4882-22.6912,12.543-45.5593,18.1643-68.6043l.8746-7.592,1.1349-2.1526c-.4655-.7575-.1731-.9673.534-.4201,10.0724-3.0861,20.5636-4.9472,31.3689-4.2445,19.032,1.2378,36.9122,8.1574,51.3304,20.5833l9.514,9.516c11.6067,13.5615,18.4264,30.0252,20.0153,47.862l-.0045,14.744c-1.9086,21.7672-11.6809,41.4581-27.3488,56.2848Z"/>
      <path class="cls-3" d="M529.5706,224.9774c-.3256,6.3403-1.1982,12.363-2.9247,18.7409l-15.6367,57.7645c-10.9844,37.5252-46.8873,62.0188-85.3315,60.764-12.3324-37.7372,2.383-79.7051,36.8404-100.38l52.0497-30.193c4.9788-2.8881,9.8453-5.0126,15.0029-6.6965Z"/>
      <path class="cls-2" d="M391.3027,353.4329c-35.2147-17.6568-54.4847-57.6774-45.0474-96.3711l15.1082-57.0935c1.7107-6.079,3.5066-11.6174,6.3515-16.9198,3.7482,3.5423,6.4089,7.7262,9.4831,12.2132l31.096,54.1528c19.5586,34.0608,11.571,77.6854-16.9915,104.0184Z"/>
      <path class="cls-3" d="M369.2803,435.6847c5.4376,17.8984,5.2977,36.9172-1.2237,54.8488-6.6296,18.2291-18.8265,33.9816-35.7043,43.7532l-54.3982,31.4947c-4.7024,2.7226-9.4481,4.3616-14.3629,5.8821.4065-4.8082.8217-9.5169,2.1811-14.5512l16.3344-60.4932c11.152-38.4056,47.8478-63.0275,87.1736-60.9346Z"/>
      <path class="cls-2" d="M352.051,404.8737l-.0264.0851c-18.0812,34.1838-57.2601,52.8155-95.3186,43.5588l-57.8347-15.3482c-6.3409-1.6828-12.1167-3.8997-17.5727-6.7737,3.6634-3.3553,7.3202-6.4246,11.8135-9.0063l54.4322-31.2741c34.8428-19.0539,78.4694-10.5801,104.5067,18.7584Z"/>
      <path class="cls-2" d="M402.7565,445.512l.0849.0269c34.0799,18.2764,52.4872,57.5613,43.013,95.5662l-15.6787,57.746c-1.719,6.3312-3.9689,12.0942-6.8741,17.5337-3.3343-3.6826-6.3827-7.3568-8.9386-11.8649l-30.9623-54.6102c-18.8543-34.9512-10.1311-78.5286,19.3558-104.3977Z"/>
    </g>
  </g>
</svg>